<svg version="1.2" xmlns="http://www.w3.org/2000/svg" viewBox="0 0 82 82" width="82" height="82"><style>.a{fill:#fff}.b{fill:#0f8a5f}</style><path class="a" d="m40.5 72c-17.4 0-31.5-14.1-31.5-31.5 0-17.4 14.1-31.5 31.5-31.5 17.4 0 31.5 14.1 31.5 31.5 0 17.4-14.1 31.5-31.5 31.5z"/><path fill-rule="evenodd" class="b" d="m82 41c0 22.6-18.4 41-41 41-22.6 0-41-18.4-41-41 0-22.6 18.4-41 41-41 22.6 0 41 18.4 41 41zm-43.1-26.9c0.7-0.1 1.4-0.1 2.1-0.1 1.1 0 2-0.9 2-2 0-1.1-0.9-2-2-2-17.1 0-31 13.9-31 31 0 1.1 0.9 2 2 2 1.1 0 2-0.9 2-2 0-0.7 0-1.4 0.1-2.1 1-13.2 11.6-23.8 24.8-24.8zm19.1 26.9c0-9.4-7.6-17-17-17-9.4 0-17 7.6-17 17 0 9.4 7.6 17 17 17 9.4 0 17-7.6 17-17zm-4 0c0 7.2-5.8 13-13 13-7.2 0-13-5.8-13-13 0-7.2 5.8-13 13-13 7.2 0 13 5.8 13 13zm-6 0c0-3.9-3.1-7-7-7-3.9 0-7 3.1-7 7 0 3.9 3.1 7 7 7 3.9 0 7-3.1 7-7zm-4 0c0 1.6-1.3 3-3 3-1.7 0-3-1.4-3-3 0-1.7 1.3-3 3-3 1.7 0 3 1.3 3 3z"/></svg>